<?xml version="1.0" encoding="UTF-8"?>
<svg id="Livello_1" xmlns="http://www.w3.org/2000/svg" xmlns:xlink="http://www.w3.org/1999/xlink" version="1.1" viewBox="0 0 940.7 340.5">
  <!-- Generator: Adobe Illustrator 29.3.1, SVG Export Plug-In . SVG Version: 2.1.0 Build 151)  -->
  <defs>
    <style>
      .st0 {
        fill: #103d51;
      }

      .st1 {
        fill: #fff;
      }

      .st2 {
        fill: url(#Sfumatura_senza_nome);
      }

      .st3 {
        fill: url(#Sfumatura_senza_nome_3);
      }

      .st4 {
        fill: url(#Sfumatura_senza_nome_2);
      }
    </style>
    <linearGradient id="Sfumatura_senza_nome" data-name="Sfumatura senza nome" x1="16.3" y1="328.6" x2="280" y2="328.6" gradientTransform="translate(0 -158)" gradientUnits="userSpaceOnUse">
      <stop offset="0" stop-color="#3b4952"/>
      <stop offset=".2" stop-color="#55646b"/>
      <stop offset=".8" stop-color="#8b999f"/>
      <stop offset="1" stop-color="#a0afb3"/>
    </linearGradient>
    <radialGradient id="Sfumatura_senza_nome_2" data-name="Sfumatura senza nome 2" cx="148.1" cy="328.6" fx="148.1" fy="328.6" r="118.4" gradientTransform="translate(0 -158)" gradientUnits="userSpaceOnUse">
      <stop offset="0" stop-color="#418da7"/>
      <stop offset="1" stop-color="#0e212a"/>
    </radialGradient>
    <radialGradient id="Sfumatura_senza_nome_3" data-name="Sfumatura senza nome 3" cx="148.1" cy="326.7" fx="148.1" fy="326.7" r="45.3" gradientTransform="translate(0 -158)" gradientUnits="userSpaceOnUse">
      <stop offset="0" stop-color="#418da7"/>
      <stop offset="1" stop-color="#0e212a"/>
    </radialGradient>
  </defs>
  <g id="Livello_11" data-name="Livello_1">
    <g>
      <g>
        <g>
          <path class="st0" d="M372.5,78.9c3,0,4.6,1.6,4.7,4.7l2.2,53h-11.8l-1.9-47.9h-1.5l-9.3,36.1c-.5,2.7-2.2,4-5,4h-8c-2.8,0-4.5-1.3-5.1-4l-9.4-36.1h-1.4l-1.8,47.9h-11.8l2.1-53c.2-3.1,1.8-4.7,4.8-4.7h12c2.7,0,4.4,1.3,5,4l7.4,29.1c.3,1.3.6,2.7.8,4.1.2,1.4.5,2.7.8,4.1h1.1c.3-1.4.5-2.8.8-4.1.3-1.4.5-2.7.8-4.1l7.4-29c.6-2.7,2.3-4,5.1-4h12.1-.1Z"/>
          <path class="st0" d="M417.5,78.9c1.1,0,2,.3,2.8.9s1.4,1.4,1.6,2.5l16.7,54.4h-13.1l-11.8-42.5c-.2-.9-.4-1.8-.7-2.8-.2-1-.4-1.9-.6-2.8h-2.3c-.2.9-.3,1.8-.5,2.8s-.4,1.9-.7,2.8l-11.8,42.5h-13.1l16.7-54.4c.3-1.1.8-1.9,1.6-2.5.8-.6,1.7-.9,2.8-.9,0,0,12.4,0,12.4,0ZM426.4,111.7v9.5h-30v-9.5h30Z"/>
          <path class="st0" d="M456.5,78.6h9.4c3.2,0,6.3,0,9.4.2,3.1,0,5.9.3,8.6.6l-.6,9.3h-22.2c-1.4,0-2.4.3-3.1,1s-1,1.8-1,3.2v29.5c0,1.4.3,2.5,1,3.2s1.7,1.1,3.1,1.1h22.2l.6,9.3c-2.7.2-5.6.4-8.6.5-3.1.1-6.2.2-9.4.2h-9.4c-3.1,0-6.7-1.1-8.9-3.2-2.3-2.1-3.4-4.9-3.5-8.4v-35c0-3.5,1.2-6.3,3.5-8.5,2.3-2.1,5.2-3.2,8.9-3.2v.2h0ZM445.6,102h34.6v9h-34.6v-9h0Z"/>
          <path class="st0" d="M512,77.8c2.8,0,5.9.2,9.3.5,3.3.3,6.6.9,9.8,1.8l-.8,8.5c-2.5,0-5.3-.2-8.6-.3h-9.7c-3.2,0-2.9,0-4,.2-1.1,0-2,.3-2.6.7-.7.3-1.1.9-1.4,1.6-.3.8-.4,1.8-.4,3.1,0,2,.5,3.4,1.4,4.3s2.5,1.7,4.7,2.4l11.1,3.6c4.6,1.6,7.8,3.7,9.6,6.4s2.7,6.2,2.7,10.5-.4,6-1.2,8.2c-.8,2.2-2,3.9-3.7,5.1-1.7,1.2-3.9,2.1-6.6,2.6s-6.1.8-10,.8-4.6-.1-8.1-.4c-3.5-.3-7.5-.9-12-1.9l.8-9c3.3,0,6.2,0,8.6.2,2.4,0,4.5,0,6.2.2h4.5c2.3,0,4.1,0,5.3-.4,1.3-.3,2.1-.8,2.6-1.7.5-.8.8-2,.8-3.6s-.2-2.5-.5-3.3c-.4-.8-1-1.4-1.8-1.9s-1.9-.9-3.3-1.3l-11.7-4c-4.5-1.6-7.6-3.7-9.4-6.3-1.8-2.6-2.7-6.1-2.7-10.5s.4-6,1.2-8.1,2-3.8,3.7-4.9,3.9-1.9,6.6-2.4c2.7-.4,6-.7,9.7-.7h0Z"/>
          <path class="st0" d="M585.1,78.9v10h-47.5v-10h47.5ZM567.7,78.9v57.7h-12.7v-57.7s12.7,0,12.7,0Z"/>
          <path class="st0" d="M614.5,78c5.1,0,9.2.5,12.3,1.5,3.2,1,5.5,2.8,6.9,5.2,1.5,2.5,2.2,5.9,2.2,10.4s-.3,5-1,7.1c-.7,2-1.9,3.7-3.5,4.9s-3.8,2-6.6,2.3v.4c1,.2,2,.6,3.1,1.2s2.1,1.5,3.1,2.7c.9,1.2,1.6,2.8,2.1,4.8l5,18h-13.4l-4.4-17.7c-.6-1.9-1.3-3.2-2.3-3.9-.9-.7-2.3-1-4.1-1h-16c-1.8,0-3.4,0-4.8-.2l.3-9.3h20.8c2.3,0,4.1-.2,5.4-.7,1.3-.5,2.2-1.3,2.8-2.6.6-1.2.8-3,.8-5.2s-.3-3.9-.8-5.1c-.6-1.2-1.5-2-2.8-2.5s-3.1-.7-5.4-.7h-13.3c-3.7,0-6.1,0-7.4.2l-1.3-9c2.3-.3,4.5-.5,6.6-.6,2,0,4.3-.2,6.7-.2h9ZM604.9,78.9v57.7h-12.6v-57.7s12.6,0,12.6,0Z"/>
          <path class="st0" d="M659.2,78.9v57.7h-12.7v-57.7s12.7,0,12.7,0Z"/>
          <path class="st0" d="M711.7,78c4.6,0,8.4.5,11.6,1.5,3.2,1,5.7,2.6,7.6,4.8,1.9,2.2,3.3,5.3,4.2,9.1.9,3.8,1.3,8.6,1.3,14.4s-.4,10.4-1.3,14.3c-.9,3.8-2.3,6.9-4.2,9.1-1.9,2.3-4.5,3.9-7.6,4.8-3.2.9-7,1.4-11.6,1.4s-8.4,0-12.1-.2c-3.7-.1-7.2-.3-10.5-.5l5.3-9.5c2.1,0,4.6.2,7.6.3,2.9,0,6.2,0,9.7,0s5.2-.6,6.8-1.7,2.8-3.2,3.5-6.1,1-6.9,1-12-.3-9.2-1-12.1-1.8-4.9-3.5-6.1c-1.6-1.2-3.9-1.8-6.8-1.8h-17l-5.6-9c3.3-.2,6.8-.4,10.5-.6s7.7-.3,12.1-.3h0ZM701.8,78.9v57.7h-12.7v-57.7s12.7,0,12.7,0Z"/>
          <path class="st0" d="M758.1,78.6h9.4c3.2,0,6.3,0,9.4.2,3.1,0,5.9.3,8.6.6l-.6,9.3h-22.2c-1.4,0-2.4.3-3.1,1-.7.7-1,1.8-1,3.2v29.5c0,1.4.3,2.5,1,3.2s1.7,1.1,3.1,1.1h22.2l.6,9.3c-2.7.2-5.6.4-8.6.5-3.1.1-6.2.2-9.4.2h-9.4c-3.1,0-6.7-1.1-8.9-3.2-2.3-2.1-3.4-4.9-3.5-8.4v-35c0-3.5,1.2-6.3,3.5-8.5,2.3-2.1,5.2-3.2,8.9-3.2v.2h0ZM747.3,102h34.6v9h-34.6v-9Z"/>
          <path class="st0" d="M807.2,78.9v43.2c0,1.4.4,2.5,1.2,3.2s1.9,1.1,3.3,1.1h20.2l.6,9.6c-4,.4-8.1.6-12.4.7-4.3,0-8.6.1-12.8.1s-7.4-1.1-9.5-3.3-3.2-5.1-3.2-8.6v-45.9h12.7,0Z"/>
          <path class="st0" d="M852,78.9v43.2c0,1.4.4,2.5,1.2,3.2s1.9,1.1,3.3,1.1h20.2l.6,9.6c-4,.4-8.1.6-12.4.7-4.3,0-8.6.1-12.8.1s-7.4-1.1-9.5-3.3-3.2-5.1-3.2-8.6v-45.9h12.7,0Z"/>
          <path class="st0" d="M911.8,78.9c1.1,0,2,.3,2.8.9s1.4,1.4,1.6,2.5l16.7,54.4h-13.1l-11.8-42.5c-.2-.9-.4-1.8-.7-2.8-.2-1-.4-1.9-.6-2.8h-2.3c-.2.9-.3,1.8-.5,2.8s-.4,1.9-.7,2.8l-11.8,42.5h-13.1l16.7-54.4c.3-1.1.8-1.9,1.6-2.5s1.7-.9,2.8-.9h12.4,0ZM920.7,111.7v9.5h-30v-9.5h30Z"/>
        </g>
        <g>
          <path class="st0" d="M347.5,167.7c8.7,0,15.5.9,20.4,2.7s8.4,4.9,10.5,9.2,3.2,10.5,3.2,18.4-1,14-3,18.3-5.3,7.4-9.9,9.1c-4.6,1.7-10.7,2.6-18.5,2.6s-8.1-.2-12.1-.5c-3.9-.3-7.6-.7-11-1.3-3.4-.5-6.3-1.1-8.6-1.7-2.4-.6-4-1.2-5-1.6l.4-10.2h33.3c3.6,0,6.4-.5,8.4-1.3,2.1-.8,3.5-2.3,4.3-4.4s1.2-5.1,1.2-9-.4-7.1-1.2-9.3c-.8-2.1-2.2-3.6-4.3-4.4-2.1-.8-4.9-1.2-8.4-1.2-8.2,0-15.3,0-21.1.1-5.9,0-9.9.2-12,.4l-1.9-14.6c3.8-.4,7.3-.8,10.5-.9,3.3-.2,6.8-.3,10.7-.3h14.1ZM332.5,169v92.5h-20.4v-92.5h20.4Z"/>
          <path class="st0" d="M431.7,167.1c7.3,0,13.5.8,18.6,2.3,5.1,1.6,9.2,4.2,12.3,7.8,3.1,3.6,5.3,8.5,6.8,14.8,1.4,6.2,2.1,14,2.1,23.3s-.7,16.9-2.1,23.1-3.7,11.2-6.8,14.8c-3.1,3.7-7.2,6.3-12.3,7.8-5.1,1.5-11.3,2.3-18.6,2.3s-13.5-.8-18.6-2.3-9.2-4.1-12.3-7.8c-3.1-3.7-5.4-8.6-6.8-14.8s-2.1-13.9-2.1-23.1.7-17.1,2.1-23.3,3.6-11.1,6.8-14.8c3.1-3.6,7.2-6.2,12.3-7.8,5.1-1.6,11.3-2.3,18.6-2.3ZM431.7,183.2c-4.7,0-8.4.9-11.1,2.8-2.6,1.9-4.5,5.1-5.6,9.8s-1.7,11.1-1.7,19.4.6,14.7,1.7,19.3,3,7.9,5.6,9.8,6.3,2.8,11.1,2.8,8.3-.9,11-2.8,4.6-5.1,5.6-9.8c1.1-4.6,1.6-11.1,1.6-19.3s-.5-14.8-1.6-19.4c-1.1-4.6-3-7.9-5.6-9.8-2.7-1.9-6.3-2.8-11-2.8Z"/>
          <path class="st0" d="M507.3,169v69.2c0,2.2.6,3.9,1.9,5.1,1.3,1.2,3,1.7,5.4,1.7h32.3l.9,15.4c-6.3.6-13,1-19.9,1.1s-13.8.2-20.6.2-11.9-1.8-15.3-5.4-5.1-8.2-5.1-13.8v-73.6h20.4Z"/>
          <path class="st0" d="M579.5,169v92.5h-20.4v-92.5h20.4Z"/>
          <path class="st0" d="M672.1,169v55.6c0,9.4-1.2,16.9-3.5,22.6s-6.1,9.8-11.5,12.3c-5.3,2.5-12.4,3.8-21.3,3.8s-16.9-1.3-22.5-3.8-9.7-6.6-12.1-12.3c-2.5-5.7-3.7-13.2-3.7-22.6v-55.6h20.4v55.6c0,5.8.5,10.3,1.5,13.6s2.8,5.6,5.3,6.9,5.9,2,10.1,2,7.6-.7,10.1-2c2.4-1.3,4.2-3.6,5.2-6.9,1.1-3.3,1.6-7.8,1.6-13.6v-55.6h20.4Z"/>
          <path class="st0" d="M725.8,167.7c8.1,0,14.7.8,19.8,2.5,5,1.7,8.8,4.4,11.1,8.4,2.4,3.9,3.6,9.5,3.6,16.6s-.6,8.1-1.7,11.3c-1.1,3.3-3,5.9-5.6,7.8-2.6,2-6.1,3.2-10.6,3.8v.7c1.6.3,3.3.9,5,1.9s3.4,2.4,4.9,4.4c1.5,1.9,2.6,4.5,3.4,7.7l8,28.8h-21.5l-7.1-28.3c-.9-3-2.1-5.1-3.6-6.2-1.5-1.1-3.7-1.7-6.6-1.7-6.1,0-11.2-.1-15.3-.1s-7.6,0-10.4-.1c-2.8,0-5.4-.2-7.7-.3l.4-14.9h33.4c3.7,0,6.5-.4,8.6-1.1,2.1-.8,3.5-2.1,4.4-4.1s1.3-4.7,1.3-8.3-.4-6.3-1.3-8.2c-.9-1.9-2.4-3.2-4.4-4-2.1-.8-4.9-1.1-8.6-1.1-8.3,0-15.4,0-21.3.1-5.9,0-9.8.2-11.9.3l-2-14.5c3.8-.4,7.3-.8,10.5-.9,3.3-.2,6.9-.3,10.8-.3h14.2l.2-.2h0ZM710.4,169v92.5h-20.1v-92.5h20.1Z"/>
          <path class="st0" d="M796,168.6h15c5.1,0,10.1.2,15,.3,4.9.2,9.5.5,13.8.9l-.9,14.9h-35.5c-2.2,0-3.9.6-5,1.7-1.1,1.1-1.7,2.8-1.7,5.2v47.2c0,2.2.6,3.9,1.7,5.1,1.1,1.2,2.8,1.7,5,1.7h35.5l.9,14.9c-4.3.4-8.9.6-13.8.8-4.9.2-9.9.3-15,.3h-15c-4.9,0-10.7-1.7-14.3-5.1s-5.5-7.9-5.6-13.4v-56.1c0-5.6,1.9-10.1,5.6-13.5,3.6-3.4,8.4-5.1,14.3-5.1v.2h0ZM778.6,206.2h55.4v14.5h-55.4v-14.5Z"/>
          <path class="st0" d="M898.6,169c1.7,0,3.2.5,4.5,1.4s2.2,2.3,2.6,4l26.8,87.2h-20.9l-18.9-68.1c-.4-1.4-.7-2.9-1.1-4.5-.4-1.6-.7-3.1-.9-4.5h-3.6c-.3,1.4-.6,2.9-.9,4.5-.3,1.6-.7,3.1-1.1,4.5l-18.9,68.1h-20.9l26.8-87.2c.4-1.7,1.3-3,2.6-4,1.3-.9,2.8-1.4,4.5-1.4h19.4ZM912.8,221.7v15.3h-48v-15.3h48Z"/>
        </g>
      </g>
      <g>
        <path class="st2" d="M280,183.1s4.1,74.4-131.6,148.8c0,0-127.1-66.4-129.6-148.8l-2.5-109.6L148.1,9.2l131.9,64.2v109.6"/>
        <path class="st4" d="M254.1,180.6s3.3,59.8-105.8,119.6c0,0-102.2-53.4-104.2-119.6l-2-88.1,106-51.6,106,51.6v88.1"/>
        <path class="st1" d="M198.1,187.7c0,25.6-22.4,46.4-50,46.4s-50-20.8-50-46.4,50-92.8,50-92.8c0,0,50,67.1,50,92.8h0Z"/>
        <path class="st3" d="M185.5,186c0,19.1-16.7,34.6-37.3,34.6s-37.3-15.5-37.3-34.6,37.3-69.3,37.3-69.3c0,0,37.3,50.1,37.3,69.3Z"/>
      </g>
    </g>
  </g>
</svg>