<?xml version="1.0" encoding="UTF-8"?>
<svg id="check1" xmlns="http://www.w3.org/2000/svg" version="1.1" viewBox="0 0 79.7 76.7">
  <!-- Generator: Adobe Illustrator 29.3.1, SVG Export Plug-In . SVG Version: 2.1.0 Build 151)  -->
  <defs>
    <style>
      .st0 {
        fill: #fff;
      }

      .st1 {
        fill: #7bd389;
      }
    </style>
  </defs>
  <g id="Layer_2">
    <g id="tick_sign">
      <path class="st0" d="M71.3,56.3c-2.7-.5-5.3,1.2-5.9,4-.2,1,0,2,.3,2.9,2.1,4.8-3.8,9.1-8,5.8-2.3-1.8-5.5-1.4-7.3.9-.5.7-.9,1.5-1.1,2.4-.6,5.1-8,6-10,1.2-1.1-2.7-4.2-3.9-6.9-2.8-.8.3-1.5.9-2.1,1.6-3.2,4.2-10.1,1.4-9.3-3.7.4-2.8-1.6-5.4-4.4-5.7-.9,0-1.8,0-2.7.4-4.9,2-9.4-3.7-6.1-7.7h0c1.7-2.2,1.3-5.3-.9-7-.7-.6-1.6-.9-2.6-1-2.7-.2-4.7-2.6-4.5-5.3C0,40.4,1.2,38.7,3.1,38c2.6-.9,3.9-3.7,3-6.2-.3-1-1-1.8-1.8-2.4C0,26.3,2.9,19.7,8.2,20.5c2.7.5,5.3-1.2,5.9-3.9.2-1,0-2-.3-3-2.1-4.8,3.8-9.1,8-5.8,2.3,1.8,5.5,1.4,7.3-.9.5-.7.9-1.5,1.1-2.4.6-5.2,8-6,10-1.2,1.1,2.7,4.2,3.9,6.9,2.8.8-.3,1.5-.9,2.1-1.6,3.1-4.1,10-1.4,9.2,3.7-.4,2.8,1.6,5.4,4.4,5.7.9.1,1.9,0,2.7-.4,4.9-2,9.4,3.7,6.1,7.7-1.7,2.1-1.4,5.2.7,7,.8.6,1.7,1,2.7,1.1,2.7.2,4.8,2.6,4.5,5.3,0,2-1.4,3.6-3.3,4.3-2.6.9-3.9,3.7-3,6.2.3,1,1,1.8,1.8,2.4,4.3,3.1,1.4,9.7-3.9,8.9h.2Z"/>
      <g id="tick">
        <path class="st1" d="M32.8,52.5l-13.8-14.9,4.5-4.2,9.8,10.6,23.4-19.9,4,4.7s-27.9,23.7-27.9,23.7Z"/>
      </g>
    </g>
  </g>
</svg>