<?xml version="1.0" encoding="UTF-8"?>
<svg id="close" xmlns="http://www.w3.org/2000/svg" version="1.1" viewBox="0 0 550 550">
  <!-- Generator: Adobe Illustrator 29.3.1, SVG Export Plug-In . SVG Version: 2.1.0 Build 151)  -->
  <defs>
    <style>
      .st0 {
        fill: #103d51;
      }

      .st1 {
        fill: #fff;
      }
    </style>
  </defs>
  <circle class="st1" cx="275" cy="275" r="196"/>
  <g id="_x38_106_-_Close">
    <path class="st0" d="M275,35c-132.3,0-240,107.7-240,240s107.7,240,240,240,240-107.7,240-240S407.3,35,275,35ZM388.6,379.5c2.5,2.5,2.5,6.6,0,9.1s-2.9,1.9-4.5,1.9-3.3-.6-4.5-1.9l-104.6-104.5-104.5,104.5c-1.3,1.3-2.9,1.9-4.5,1.9s-3.3-.6-4.5-1.9c-2.5-2.5-2.5-6.6,0-9.1l104.4-104.5-104.5-104.5c-2.5-2.5-2.5-6.6,0-9.1s6.6-2.5,9.1,0l104.5,104.5,104.5-104.5c2.5-2.5,6.6-2.5,9.1,0s2.5,6.6,0,9.1l-104.5,104.5,104.5,104.5Z"/>
  </g>
</svg>