<?xml version="1.0" encoding="UTF-8"?>
<svg xmlns="http://www.w3.org/2000/svg" version="1.1" viewBox="0 0 250 250">
  <!-- Generator: Adobe Illustrator 29.3.1, SVG Export Plug-In . SVG Version: 2.1.0 Build 151)  -->
  <defs>
    <style>
      .st0, .st1, .st2 {
        fill: #103d51;
      }

      .st1 {
        fill-rule: evenodd;
      }

      .st2, .st3 {
        display: none;
      }
    </style>
  </defs>
  <g id="ultima-generazione" class="st3">
    <path class="st2" d="M108.8,60.1h22.2c-.6,8.9-4.5,17.2-11.1,23.3-6.5-6.1-10.5-14.4-11.1-23.3ZM119.9,89.8c-6.5,6.1-10.5,14.4-11.1,23.3h22.2c-.6-8.9-4.5-17.2-11.1-23.3h0ZM166,144.7l-13.5-6.9c-.7-.4-1.6-.3-2.3,0-4.8,2.9-10,5-15.4,6.4-.8.2-1.4.8-1.7,1.6l-4.7,14.4h-17l-4.7-14.4c-.2-.8-.9-1.4-1.7-1.6-5.4-1.4-10.6-3.5-15.4-6.4-.7-.4-1.6-.4-2.3,0l-13.5,6.9-12-12,6.9-13.5c.4-.7.3-1.6,0-2.3-2.8-4.8-5-10-6.4-15.4-.2-.8-.8-1.4-1.6-1.7l-14.4-4.7v-17l14.4-4.7c.8-.3,1.4-.9,1.6-1.7,1.4-5.4,3.5-10.6,6.4-15.4.4-.7.4-1.6,0-2.3l-6.9-13.5,12-12,13.5,6.9c.7.4,1.6.3,2.3,0,4.8-2.9,10-5,15.4-6.4.8-.2,1.4-.8,1.7-1.6l4.7-14.4h17l4.7,14.4c.2.8.9,1.4,1.7,1.6,5.4,1.4,10.6,3.5,15.4,6.4.7.4,1.6.4,2.3,0l13.5-6.9,12,12-6.9,13.5c-.4.7-.4,1.6,0,2.3,2.8,4.8,5,10,6.4,15.4.2.8.8,1.4,1.6,1.7l14.4,4.7v17l-14.4,4.7c-.8.3-1.4.9-1.6,1.7-1.4,5.4-3.5,10.6-6.4,15.4-.4.7-.4,1.6,0,2.3l6.9,13.5-12,12ZM170.3,86.7c0-27.8-22.6-50.4-50.4-50.4s-50.4,22.6-50.4,50.4,22.6,50.4,50.4,50.4,50.4-22.6,50.4-50.4ZM45.4,197c2,2.6,2.5,10,2.6,16.1h42.3c.4-7.5.5-14.1-1.5-19.4-6.9-15.7-15.6-23.5-17.2-24.4-10.3-7.9-15.3-10.2-25.1-13-.9-.3-1.7-.8-2.5-1.4,0,1.3,0,2.2.1,2.4.4,3.8,1.6,6.5,3.4,9,1.9,2.5,4.4,4.6,7.5,7,5.4,3.4,10.2,5.4,15.2,9.5,1,.8,1.2,2.3.3,3.3s-2.3,1.2-3.3.3c-4.5-3.7-9.8-6.1-14.7-9.2h0c0,0-.1,0-.2-.1-3.5-2.7-6.4-5.1-8.6-8.1-2.3-3.1-3.8-6.6-4.3-11.2-2-16.4-6.9-33.6-9-52.7l-1-5.6c-1.3-4.1-2.8-5.7-3.1-5.9-1.9-2.4-5.8-3.7-7.4-3.5-1.3.3-2.1.6-3.3,2.2-1.7,2.1-1.4,9.2-1.4,9.9.8,17.5,1.6,26.6,1.6,30,1,23.6,3.5,32.5,5.1,38.8,1.7,4.8,4.6,8.6,8.7,12.4,4.1,3.6,14.6,12.2,15.6,13.5h0ZM91.6,218.2l-50.6-.4c-1.3,0-2.3,1-2.3,2.2v14.3c-.1,1.2.9,2.3,2.1,2.3l50.6.4c1.2,0,2.3-1,2.3-2.2v-14.3c.1-1.2-.9-2.3-2.1-2.3ZM234.2,92.3c-1.1-1.6-2-1.9-3.3-2.2-1.6-.2-5.5,1.1-7.4,3.5-.2.2-1.8,1.8-3.1,5.9l-1,5.6c-2.2,20.2-9.1,39.2-10.7,52.7-.6,4.7-2,8.2-4.3,11.2-2.2,2.9-5.1,5.4-8.6,8.1,0,0-.1,0-.2.1h0c-4.9,3.1-10.2,5.5-14.7,9.2-1,.8-2.5.7-3.3-.3-.8-1-.7-2.5.3-3.3,5-4.1,9.8-6.2,15.2-9.5,3.1-2.4,5.7-4.5,7.5-7,2.1-2.8,3.3-6.1,3.5-10.4-.3.1-.5.2-.8.3-9.8,2.8-14.7,5.1-25.1,13-1.7.9-10.3,8.8-17.2,24.4-1.9,5.3-1.9,11.9-1.5,19.4h42.3c0-6,.6-13.4,2.6-16.1,1-1.3,11.4-9.9,15.6-13.5,4.2-3.8,7.1-7.6,8.7-12.4,1.6-6.3,4.1-15.2,5.1-38.8,0-3.4.8-12.6,1.6-30,0-.7.3-7.8-1.4-9.9h0ZM209,217.8l-50.6.4c-1.2,0-2.2,1-2.2,2.3v14.3c.1,1.2,1.1,2.2,2.4,2.2l50.6-.4c1.2,0,2.2-1,2.2-2.3v-14.3c-.1-1.2-1.2-2.2-2.4-2.2h0ZM165.6,86.7c0,25.2-20.5,45.6-45.7,45.6s-45.7-20.5-45.7-45.6,20.5-45.6,45.7-45.6,45.7,20.5,45.7,45.6ZM123.5,86.7c7.9-7.5,12.4-17.9,12.4-28.9s-1.1-2.4-2.4-2.4h-27.1c-1.3,0-2.4,1.1-2.4,2.4,0,11,4.5,21.4,12.4,28.9-7.9,7.5-12.4,17.9-12.4,28.9s1.1,2.4,2.4,2.4h27.1c1.3,0,2.4-1.1,2.4-2.4,0-11-4.5-21.4-12.4-28.9h0Z"/>
  </g>
  <g id="rete" class="st3">
    <g>
      <path class="st0" d="M222.2,110.2c-7.1,0-13.2,5.1-14.5,12h-21.3c-.7-14.5-6.4-28.2-16.3-38.8l15.1-15.1c6.2,4.4,14.8,3.3,19.7-2.5,4.9-5.8,4.7-14.4-.6-19.9-5.3-5.5-13.9-6-19.8-1.2s-7.3,13.3-3.1,19.6l-15.1,15.1c-10.7-9.7-24.5-15.3-38.9-15.9v-21.3c7.5-1.2,12.9-7.9,12.5-15.5-.5-7.6-6.7-13.6-14.3-13.9-7.6-.2-14.2,5.4-15.1,12.9-1,7.6,4,14.6,11.4,16.3v21.5c-14.3.7-27.9,6.5-38.4,16.2l-15.1-15.1c4.4-6.2,3.4-14.7-2.4-19.7s-14.4-4.8-19.9.5c-5.5,5.3-6.1,13.8-1.4,19.8,4.7,6,13.2,7.4,19.6,3.2l15.2,15.2c-9.7,10.7-15.3,24.4-15.9,38.9h-21.2c-1.2-7.5-7.9-12.9-15.5-12.5-7.6.5-13.6,6.7-13.9,14.3s5.4,14.2,12.9,15.1c7.6,1,14.6-4,16.3-11.4h21.4c.7,14.3,6.4,27.9,16.1,38.5l-15,15c-6.2-4.4-14.8-3.3-19.7,2.5-4.9,5.8-4.7,14.4.6,19.9,5.3,5.5,13.9,6,19.8,1.2,5.9-4.8,7.3-13.3,3.1-19.6l15-15c10.6,9.7,24.2,15.3,38.6,15.9v21.2c-7.5,1.4-12.7,8.3-12,15.9.7,7.6,7.1,13.4,14.7,13.4s14-5.8,14.7-13.4-4.5-14.5-12-15.9v-21.2c14.5-.6,28.2-6.4,38.8-16.2l15,15c-4.3,6.3-3.2,14.8,2.6,19.7,5.8,4.9,14.4,4.6,19.9-.8s5.9-13.9,1.1-19.9c-4.8-5.9-13.3-7.2-19.7-3l-15-15c9.7-10.6,15.3-24.3,15.9-38.7h21.3c1.5,7.7,8.6,12.9,16.4,11.9,7.7-1,13.4-7.8,12.9-15.6s-6.9-13.9-14.8-13.9ZM139.7,144v10.5c0,8.1-6.6,14.7-14.7,14.7s-14.7-6.6-14.7-14.7v-10.6c-10.6-5.2-17.2-15.7-17.1-27.3,0-7.9,3.2-15.4,8.7-21,5.6-5.7,13.1-9.1,21.1-9.6,8.9-.5,17.7,2.6,24.3,8.7,6.1,5.7,9.6,13.6,9.6,22,0,11.4-6.5,21.9-17.1,27.2Z"/>
      <path class="st0" d="M115.8,154.6c0,5.1,4.1,9.2,9.2,9.2s9.2-4.1,9.2-9.2v-6.1h-18.4v6.1Z"/>
      <path class="st0" d="M143.5,98.9c-5-4.7-11.7-7.3-18.5-7.3-.5,0-1.1,0-1.6,0-6.6.4-12.9,3.2-17.5,8-4.5,4.5-7.1,10.7-7.2,17.1,0,9.9,6,18.9,15.4,22.9,1,.4,1.7,1.4,1.7,2.5v.7h18.4v-.6c0-1.1.7-2.1,1.7-2.5,9.4-4.2,15.5-13.2,15.5-23,0-6.8-2.9-13.3-7.9-18Z"/>
    </g>
  </g>
  <g id="garanzia">
    <path class="st1" d="M113.4,133.1l-10.9,30.5-11.9-14.3-18.5,1.7,13.7-29c4,1.8,8.5,2.1,13.3,1.3,3-.5,5.7.6,7.5,3.1,2,2.8,4.2,5,6.8,6.7h0ZM151.2,123.3c-3-.5-5.7.6-7.5,3.1-1.9,2.7-4.1,4.9-6.7,6.6l10.9,30.6,11.9-14.3,18.5,1.7-13.7-29.1c-4.1,1.8-8.6,2.2-13.5,1.4h0ZM67.1,71c0-5.6,2.5-9.5,6.9-12.6,4.8-3.4,7-8.9,6.1-14.6-.9-5.4,0-9.9,4-13.8,4-4,8.4-4.9,13.8-4,5.8,1,11.2-1.3,14.6-6.1,3.2-4.4,7-6.9,12.6-6.9s9.5,2.5,12.6,6.9c3.4,4.8,8.9,7,14.6,6.1,5.4-.9,9.9,0,13.8,4,4,4,4.9,8.4,4,13.8-1,5.8,1.3,11.2,6.1,14.6,4.4,3.2,6.9,7,6.9,12.6s-2.5,9.5-6.9,12.6c-4.8,3.4-7,8.9-6.1,14.6.9,5.4,0,9.9-4,13.8s-8.4,4.9-13.8,4c-5.8-1-11.2,1.3-14.6,6.1-3.2,4.4-7,6.9-12.6,6.9s-9.5-2.5-12.6-6.9c-3.4-4.8-8.9-7-14.6-6.1-5.4.9-9.9,0-13.8-4-4-4-4.9-8.4-4-13.8,1-5.8-1.3-11.2-6.1-14.6-4.4-3.2-6.9-7-6.9-12.6h0ZM92.2,71c0,18.2,14.8,33,33,33s33-14.8,33-33-14.8-33-33-33-33,14.8-33,33ZM110.6,85.3c1.8,3.2,6.2,3.8,8.8,1.2l23.6-23.6c2.1-2.1,2.1-5.4,0-7.5s-5.4-2.1-7.5,0l-19,19-4.7-8.1c-1.4-2.5-4.7-3.4-7.2-1.9-2.5,1.5-3.4,4.7-1.9,7.2l7.9,13.7h0ZM15.8,95c6.1,22.8,23.8,40.8,46.5,47.2-14.5-11.7-23.7-28.8-25.6-47.3-1.8-17.2,2.9-34.5,13.1-48.4l7.3,4.9c1.2.8,2.7,0,2.8-1.4l3.1-35c.1-1.3-1.1-2.3-2.3-1.9l-40,10.4c-1.5.4-1.9,2.4-.6,3.3l10,6.7c-14.8,16.8-20.3,39.9-14.4,61.7h0ZM220.1,33.4l10-6.7c1.3-.9,1-2.9-.6-3.3l-40-10.4c-1.2-.3-2.4.7-2.3,1.9l3.1,35c.1,1.4,1.7,2.1,2.8,1.4l7.3-4.9c10.1,13.9,14.8,31.2,13.1,48.4-1.9,18.5-11.1,35.6-25.6,47.3,22.7-6.4,40.4-24.4,46.5-47.2,5.8-21.7.3-44.9-14.4-61.7h0ZM172.7,172.9c-10.5,4.1-22.7,8.2-32.2,11-1.8,11.6-19.4,15.6-32.7,16.6-7.4.5-15,.2-20.4,0-1.7,0-3.2-.1-4.2-.2-2.3,0-4.1-1.9-4.1-4.2,0-2.3,1.9-4.1,4.2-4.1,1.4,0,2.8,0,4.4.2,5.2.2,12.4.5,19.4,0,6.3-.5,24.1-1.4,23.4-10.7-.4-5.7-5-9.5-15-9.6-16-.1-30.4-1.4-46.5-3.1-22.5-1.6-40.2,15.8-54.6,31.5-1.6,1.8-1.8,4.4-.3,6.4l21.2,28.4c1.6,2.2,4.7,2.7,6.9,1.1,17.4-12.3,32.7-10.6,47.5-10.8,7.4-.1,15.7,1.3,28.4-4.4l67.7-30.8c5.3-2.6,11.4-6,13.9-8.1,3.9-9.3-4.1-18.2-27-9.1h0Z"/>
  </g>
</svg>