<?xml version="1.0" encoding="UTF-8"?>
<svg id="ultima-generazione" xmlns="http://www.w3.org/2000/svg" version="1.1" viewBox="0 0 250 250">
  <!-- Generator: Adobe Illustrator 29.3.1, SVG Export Plug-In . SVG Version: 2.1.0 Build 151)  -->
  <defs>
    <style>
      .st0 {
        fill: #103d51;
      }
    </style>
  </defs>
  <path class="st0" d="M108.8,60.1h22.2c-.6,8.9-4.5,17.2-11.1,23.3-6.5-6.1-10.5-14.4-11.1-23.3ZM119.9,89.8c-6.5,6.1-10.5,14.4-11.1,23.3h22.2c-.6-8.9-4.5-17.2-11.1-23.3h0ZM166,144.7l-13.5-6.9c-.7-.4-1.6-.3-2.3,0-4.8,2.9-10,5-15.4,6.4-.8.2-1.4.8-1.7,1.6l-4.7,14.4h-17l-4.7-14.4c-.2-.8-.9-1.4-1.7-1.6-5.4-1.4-10.6-3.5-15.4-6.4-.7-.4-1.6-.4-2.3,0l-13.5,6.9-12-12,6.9-13.5c.4-.7.3-1.6,0-2.3-2.8-4.8-5-10-6.4-15.4-.2-.8-.8-1.4-1.6-1.7l-14.4-4.7v-17l14.4-4.7c.8-.3,1.4-.9,1.6-1.7,1.4-5.4,3.5-10.6,6.4-15.4.4-.7.4-1.6,0-2.3l-6.9-13.5,12-12,13.5,6.9c.7.4,1.6.3,2.3,0,4.8-2.9,10-5,15.4-6.4.8-.2,1.4-.8,1.7-1.6l4.7-14.4h17l4.7,14.4c.2.8.9,1.4,1.7,1.6,5.4,1.4,10.6,3.5,15.4,6.4.7.4,1.6.4,2.3,0l13.5-6.9,12,12-6.9,13.5c-.4.7-.4,1.6,0,2.3,2.8,4.8,5,10,6.4,15.4.2.8.8,1.4,1.6,1.7l14.4,4.7v17l-14.4,4.7c-.8.3-1.4.9-1.6,1.7-1.4,5.4-3.5,10.6-6.4,15.4-.4.7-.4,1.6,0,2.3l6.9,13.5-12,12ZM170.3,86.7c0-27.8-22.6-50.4-50.4-50.4s-50.4,22.6-50.4,50.4,22.6,50.4,50.4,50.4,50.4-22.6,50.4-50.4ZM45.4,197c2,2.6,2.5,10,2.6,16.1h42.3c.4-7.5.5-14.1-1.5-19.4-6.9-15.7-15.6-23.5-17.2-24.4-10.3-7.9-15.3-10.2-25.1-13-.9-.3-1.7-.8-2.5-1.4,0,1.3,0,2.2.1,2.4.4,3.8,1.6,6.5,3.4,9,1.9,2.5,4.4,4.6,7.5,7,5.4,3.4,10.2,5.4,15.2,9.5,1,.8,1.2,2.3.3,3.3s-2.3,1.2-3.3.3c-4.5-3.7-9.8-6.1-14.7-9.2h0c0,0-.1,0-.2-.1-3.5-2.7-6.4-5.1-8.6-8.1-2.3-3.1-3.8-6.6-4.3-11.2-2-16.4-6.9-33.6-9-52.7l-1-5.6c-1.3-4.1-2.8-5.7-3.1-5.9-1.9-2.4-5.8-3.7-7.4-3.5-1.3.3-2.1.6-3.3,2.2-1.7,2.1-1.4,9.2-1.4,9.9.8,17.5,1.6,26.6,1.6,30,1,23.6,3.5,32.5,5.1,38.8,1.7,4.8,4.6,8.6,8.7,12.4,4.1,3.6,14.6,12.2,15.6,13.5h0ZM91.6,218.2l-50.6-.4c-1.3,0-2.3,1-2.3,2.2v14.3c-.1,1.2.9,2.3,2.1,2.3l50.6.4c1.2,0,2.3-1,2.3-2.2v-14.3c.1-1.2-.9-2.3-2.1-2.3ZM234.2,92.3c-1.1-1.6-2-1.9-3.3-2.2-1.6-.2-5.5,1.1-7.4,3.5-.2.2-1.8,1.8-3.1,5.9l-1,5.6c-2.2,20.2-9.1,39.2-10.7,52.7-.6,4.7-2,8.2-4.3,11.2-2.2,2.9-5.1,5.4-8.6,8.1,0,0-.1,0-.2.1h0c-4.9,3.1-10.2,5.5-14.7,9.2-1,.8-2.5.7-3.3-.3-.8-1-.7-2.5.3-3.3,5-4.1,9.8-6.2,15.2-9.5,3.1-2.4,5.7-4.5,7.5-7,2.1-2.8,3.3-6.1,3.5-10.4-.3.1-.5.2-.8.3-9.8,2.8-14.7,5.1-25.1,13-1.7.9-10.3,8.8-17.2,24.4-1.9,5.3-1.9,11.9-1.5,19.4h42.3c0-6,.6-13.4,2.6-16.1,1-1.3,11.4-9.9,15.6-13.5,4.2-3.8,7.1-7.6,8.7-12.4,1.6-6.3,4.1-15.2,5.1-38.8,0-3.4.8-12.6,1.6-30,0-.7.3-7.8-1.4-9.9h0ZM209,217.8l-50.6.4c-1.2,0-2.2,1-2.2,2.3v14.3c.1,1.2,1.1,2.2,2.4,2.2l50.6-.4c1.2,0,2.2-1,2.2-2.3v-14.3c-.1-1.2-1.2-2.2-2.4-2.2h0ZM165.6,86.7c0,25.2-20.5,45.6-45.7,45.6s-45.7-20.5-45.7-45.6,20.5-45.6,45.7-45.6,45.7,20.5,45.7,45.6ZM123.5,86.7c7.9-7.5,12.4-17.9,12.4-28.9s-1.1-2.4-2.4-2.4h-27.1c-1.3,0-2.4,1.1-2.4,2.4,0,11,4.5,21.4,12.4,28.9-7.9,7.5-12.4,17.9-12.4,28.9s1.1,2.4,2.4,2.4h27.1c1.3,0,2.4-1.1,2.4-2.4,0-11-4.5-21.4-12.4-28.9h0Z"/>
</svg>