<?xml version="1.0" encoding="UTF-8"?>
<svg id="Layer_1" xmlns="http://www.w3.org/2000/svg" version="1.1" viewBox="0 0 512 512">
  <!-- Generator: Adobe Illustrator 29.3.1, SVG Export Plug-In . SVG Version: 2.1.0 Build 151)  -->
  <defs>
    <style>
      .st0 {
        fill: #fff;
        fill-rule: evenodd;
      }

      .st1 {
        fill: #ea4242;
      }
    </style>
  </defs>
  <circle class="st1" cx="256" cy="256" r="240"/>
  <path class="st0" d="M354.9,352l-67.5-97.3c-1.3-1.9-1.3-4.6,0-6.5l61.4-88.3c1.8-2.5,1.1-6.1-1.4-7.9-1-.7-2.1-1-3.2-1h-42.2c-1.9,0-3.7.9-4.7,2.5l-37.7,54.9c-1.8,2.6-5.3,3.2-7.9,1.5-.6-.4-1-.9-1.5-1.5l-37.4-54.9c-1-1.6-2.8-2.5-4.7-2.5h-41.4c-3.1,0-5.7,2.5-5.7,5.7s.4,2.2,1,3.2l61.9,90.4c1.3,1.9,1.3,4.6,0,6.5l-66.7,95.2c-1.8,2.5-1.2,6.1,1.4,7.9,1,.7,2.1,1,3.3,1h41.6c1.9,0,3.6-.9,4.6-2.5l42.2-60.8c1.8-2.5,5.3-3.2,7.9-1.4.5.4,1,.8,1.4,1.3l43.1,60.9c1,1.5,2.8,2.4,4.6,2.4h42.9c3.1,0,5.7-2.5,5.7-5.7s-.4-2.2-1-3.2h0Z"/>
</svg>