<?xml version="1.0" encoding="UTF-8"?>
<svg id="Livello_1" xmlns="http://www.w3.org/2000/svg" version="1.1" viewBox="0 0 392 496">
  <!-- Generator: Adobe Illustrator 29.2.1, SVG Export Plug-In . SVG Version: 2.1.0 Build 116)  -->
  <defs>
    <style>
      .st0 {
        fill: #e74e0f;
      }
    </style>
  </defs>
  <path class="st0" d="M287.8,188.2l-77.1,16.4v118.4h-27.8v-119l-79.4-15.9s-3.4,34,47,47v164.9c25.5,18.1,44.2,28.9,44.2,28.9,15.9-9.6,31.7-19.3,47-30.6v-162.1c52.7-13.6,45.9-48.2,45.9-48.2"/>
  <path class="st0" d="M169.9,8C78.1,21,8.4,105.5,8.4,200.1s26.6,90.7,59.5,127.5v-130.4c0-61.2,42.5-113.3,102-125.8V8Z"/>
  <path class="st0" d="M383.6,200.1c0-94.1-70.8-179.1-161.5-192.1v64c59.5,12.5,102,65.2,102,125.8v130.3c32.3-37.4,59.5-81,59.5-128.1"/>
  <path class="st0" d="M195.4,467.6c32.6,0,58.9,4.6,58.9,10.2s-26.4,10.2-58.9,10.2-58.9-4.6-58.9-10.2,26.4-10.2,58.9-10.2"/>
</svg>